<svg width="270" height="83" viewBox="0 0 270 83" fill="none" xmlns="http://www.w3.org/2000/svg">
<path d="M90.7638 64V18.56H97.6758V40.448L94.3478 38.016H121.996L118.668 40.448V18.56H125.58V64H118.668V41.856L121.996 44.288H94.3478L97.6758 41.856V64H90.7638ZM147.343 64.768C144.015 64.768 141.135 64.0427 138.703 62.592C136.314 61.1413 134.458 59.072 133.135 56.384C131.855 53.696 131.215 50.56 131.215 46.976C131.215 43.392 131.855 40.2773 133.135 37.632C134.458 34.944 136.314 32.8747 138.703 31.424C141.093 29.9307 143.909 29.184 147.151 29.184C150.223 29.184 152.933 29.9093 155.279 31.36C157.626 32.768 159.439 34.816 160.719 37.504C162.042 40.192 162.703 43.4347 162.703 47.232V48.96H138.255C138.426 52.288 139.301 54.784 140.879 56.448C142.501 58.112 144.677 58.944 147.407 58.944C149.413 58.944 151.077 58.4747 152.399 57.536C153.722 56.5973 154.639 55.3387 155.151 53.76L162.191 54.208C161.295 57.3653 159.525 59.9253 156.879 61.888C154.277 63.808 151.098 64.768 147.343 64.768ZM138.255 43.84H155.535C155.322 40.8107 154.447 38.5707 152.911 37.12C151.418 35.6693 149.498 34.944 147.151 34.944C144.719 34.944 142.714 35.712 141.135 37.248C139.599 38.7413 138.639 40.9387 138.255 43.84ZM180.777 64.768C177.577 64.768 174.868 64.2773 172.649 63.296C170.473 62.3147 168.788 60.9707 167.593 59.264C166.399 57.5147 165.716 55.5093 165.545 53.248L172.521 52.928C172.863 54.8053 173.673 56.2987 174.953 57.408C176.233 58.5173 178.175 59.072 180.777 59.072C182.911 59.072 184.596 58.7307 185.833 58.048C187.071 57.3653 187.689 56.2773 187.689 54.784C187.689 53.9733 187.476 53.2907 187.049 52.736C186.665 52.1387 185.897 51.648 184.745 51.264C183.593 50.8373 181.887 50.432 179.625 50.048C176.255 49.408 173.609 48.6613 171.689 47.808C169.769 46.9547 168.404 45.8667 167.593 44.544C166.783 43.2213 166.377 41.6213 166.377 39.744C166.377 36.6293 167.529 34.0907 169.833 32.128C172.18 30.1653 175.551 29.184 179.945 29.184C182.889 29.184 185.364 29.696 187.369 30.72C189.375 31.7013 190.932 33.0453 192.041 34.752C193.193 36.416 193.919 38.2933 194.217 40.384L187.241 40.768C187.028 39.5733 186.601 38.5493 185.961 37.696C185.364 36.8 184.553 36.1173 183.529 35.648C182.505 35.136 181.289 34.88 179.881 34.88C177.705 34.88 176.084 35.3067 175.017 36.16C173.951 37.0133 173.417 38.1227 173.417 39.488C173.417 40.512 173.652 41.344 174.121 41.984C174.633 42.624 175.444 43.1573 176.553 43.584C177.663 43.968 179.135 44.3093 180.969 44.608C184.511 45.2053 187.284 45.952 189.289 46.848C191.295 47.7013 192.703 48.768 193.513 50.048C194.324 51.328 194.729 52.8853 194.729 54.72C194.729 56.8533 194.132 58.6667 192.937 60.16C191.743 61.6533 190.1 62.8053 188.009 63.616C185.919 64.384 183.508 64.768 180.777 64.768ZM199.675 73.6V29.952H206.075L206.267 37.248L205.499 36.864C206.352 34.3467 207.76 32.448 209.723 31.168C211.685 29.8453 213.947 29.184 216.507 29.184C219.835 29.184 222.565 30.016 224.699 31.68C226.875 33.3013 228.475 35.456 229.499 38.144C230.565 40.832 231.099 43.776 231.099 46.976C231.099 50.176 230.565 53.12 229.499 55.808C228.475 58.496 226.875 60.672 224.699 62.336C222.565 63.9573 219.835 64.768 216.507 64.768C214.8 64.768 213.2 64.4693 211.707 63.872C210.213 63.2747 208.933 62.4427 207.867 61.376C206.843 60.2667 206.117 58.9653 205.691 57.472L206.459 56.704V73.6H199.675ZM215.291 58.88C218.021 58.88 220.155 57.8347 221.691 55.744C223.269 53.6533 224.059 50.7307 224.059 46.976C224.059 43.2213 223.269 40.2987 221.691 38.208C220.155 36.1173 218.021 35.072 215.291 35.072C213.499 35.072 211.941 35.52 210.619 36.416C209.296 37.2693 208.272 38.592 207.547 40.384C206.821 42.176 206.459 44.3733 206.459 46.976C206.459 49.5787 206.8 51.776 207.483 53.568C208.208 55.36 209.232 56.704 210.555 57.6C211.92 58.4533 213.499 58.88 215.291 58.88ZM250.083 64.768C246.841 64.768 244.003 64.0427 241.571 62.592C239.139 61.1413 237.262 59.072 235.939 56.384C234.617 53.696 233.955 50.56 233.955 46.976C233.955 43.3493 234.617 40.2133 235.939 37.568C237.262 34.9227 239.139 32.8747 241.571 31.424C244.003 29.9307 246.841 29.184 250.083 29.184C253.326 29.184 256.163 29.9307 258.595 31.424C261.027 32.8747 262.905 34.9227 264.227 37.568C265.55 40.2133 266.211 43.3493 266.211 46.976C266.211 50.56 265.55 53.696 264.227 56.384C262.905 59.072 261.027 61.1413 258.595 62.592C256.163 64.0427 253.326 64.768 250.083 64.768ZM250.083 58.88C252.985 58.88 255.225 57.8347 256.803 55.744C258.382 53.6107 259.171 50.688 259.171 46.976C259.171 43.264 258.382 40.3627 256.803 38.272C255.225 36.1387 252.985 35.072 250.083 35.072C247.225 35.072 244.985 36.1387 243.363 38.272C241.785 40.3627 240.995 43.264 240.995 46.976C240.995 50.688 241.785 53.6107 243.363 55.744C244.985 57.8347 247.225 58.88 250.083 58.88Z" fill="#002030"/>
<path d="M46.1808 47.2238L4.99285 46.5477C3.88843 46.5296 3.00781 45.6196 3.02594 44.5151L3.49694 15.8223C3.52413 14.1661 4.88857 12.8453 6.54485 12.872L44.7337 13.487C45.8384 13.5048 46.7194 14.4149 46.7012 15.5196L46.1808 47.2238Z" fill="#2A9DE5"/>
<path d="M47.5656 23.201L47.1713 47.2282L67.2899 47.5584C67.7368 47.5657 68.103 47.2055 68.103 46.7585L68.103 35.7122C68.103 34.5668 67.7752 33.4453 67.1582 32.4803L62.1705 24.6789C61.2674 23.2663 59.7164 22.4004 58.0399 22.3728L48.5819 22.2176C48.0297 22.2085 47.5747 22.6488 47.5656 23.201Z" fill="#2A9DE5"/>
<path d="M55.2913 42.1087C58.0938 42.1548 60.3796 44.6242 60.3293 47.6911C60.2789 50.758 57.9132 53.1511 55.1108 53.1052C52.3083 53.0592 50.0226 50.5897 50.0729 47.5228C50.1232 44.4558 52.4887 42.0627 55.2913 42.1087Z" fill="#2A9DE5" stroke="white"/>
<path d="M20.1932 41.5325C22.9957 41.5787 25.2815 44.0481 25.2311 47.115C25.1807 50.1818 22.8151 52.5749 20.0127 52.5291C17.2101 52.4831 14.9245 50.0135 14.9747 46.9466C15.0251 43.8796 17.3906 41.4865 20.1932 41.5325Z" fill="#2A9DE5" stroke="white"/>
<path d="M8.82755 62.9178C9.98124 61.8698 13.4169 58.4767 13.4169 55.2187C13.4169 53.8342 12.8941 52.5064 11.9635 51.5275C11.0329 50.5485 9.7708 49.9985 8.45477 49.9985C7.13874 49.9985 5.87661 50.5485 4.94604 51.5275C4.01547 52.5064 3.49268 53.8342 3.49268 55.2187C3.49268 58.4767 6.92831 61.8698 8.082 62.9178C8.18947 63.0028 8.3203 63.0487 8.45477 63.0487C8.58924 63.0487 8.72007 63.0028 8.82755 62.9178Z" fill="#2A9DE5"/>
<g clip-path="url(#clip0_64_102)">
<path d="M75.8731 26.806C77.1679 25.6707 81.0237 21.9949 81.0237 18.4654C81.0237 16.9656 80.437 15.5272 79.3926 14.4666C78.3482 13.4061 76.9317 12.8103 75.4547 12.8103C73.9777 12.8103 72.5612 13.4061 71.5169 14.4666C70.4725 15.5272 69.8857 16.9656 69.8857 18.4654C69.8857 21.9949 73.7416 25.6707 75.0363 26.806C75.157 26.8981 75.3038 26.9479 75.4547 26.9479C75.6056 26.9479 75.7525 26.8981 75.8731 26.806Z" fill="#2A9DE5"/>
</g>
<path d="M9.36084 64.9785C25.1848 70.0134 59.2995 73.3818 71.6109 56.7711C82.3306 42.308 76.2267 28.9094 76.2267 28.9094" stroke="#2A9DE5" stroke-width="2" stroke-linecap="round" stroke-dasharray="8 8"/>
<defs>
<clipPath id="clip0_64_102">
<rect width="15" height="16" fill="white" transform="translate(67.9546 10.948)"/>
</clipPath>
</defs>
</svg>
