<svg width="639" height="469" viewBox="0 0 639 469" fill="none" xmlns="http://www.w3.org/2000/svg">
<g opacity="0.5">
<path d="M0.953125 386.224C41.7314 257.336 184.455 218.015 280.934 196.793C493.94 149.94 543.447 136.459 591.845 0.334961" stroke="#6192AA" stroke-width="2"/>
<path opacity="0.65" d="M212.817 285.326L142.7 307.6L139.619 278.468L145.037 242.842L225.071 233.187L232.699 244.282V259.179L225.071 274.699L215.213 276.599L212.817 285.326Z" fill="#C5E3F3"/>
<g opacity="0.59" filter="url(#filter0_f_224_2)">
<path d="M179.756 267.847L175.461 267.363L172.981 264.883L183.023 261.253L183.748 263.007V265.608L179.756 267.847Z" fill="#6192AA"/>
</g>
<g opacity="0.59" filter="url(#filter1_f_224_2)">
<path d="M221.793 252.802L217.498 252.318L215.018 249.838L225.059 246.209L225.785 247.963V250.564L221.793 252.802Z" fill="#6192AA"/>
</g>
<path d="M51.0791 468.355C73.1384 344.274 217.245 290.486 318.544 274.421C527.184 241.333 601.701 197.626 637.377 84.0298" stroke="#6192AA" stroke-width="2"/>
<g opacity="0.5" filter="url(#filter2_f_224_2)">
<path d="M154.163 280.558L152.726 245.862L224.106 224.029L241.556 250.64L154.163 280.558Z" fill="#6192AA"/>
</g>
<path d="M23.5215 428.787C45.6598 304.262 202.889 257.88 303.437 235.852C554.37 180.878 555.826 161.945 615.537 47.6206" stroke="#6192AA" stroke-width="3" stroke-dasharray="24 24"/>
<path d="M154.475 262.142L153.959 263.599L216.267 241.423L215.862 240.452L154.475 262.142Z" fill="#437086"/>
<path d="M220.62 197.479L212.845 199.704L220.62 213.331L219.524 223.588L235.54 219.147L220.62 197.479Z" fill="#D7E4EA"/>
<path d="M212.845 199.704L212.57 198.743L211.345 199.093L211.976 200.2L212.845 199.704ZM220.62 197.479L221.444 196.912L221.036 196.32L220.345 196.518L220.62 197.479ZM235.54 219.147L235.807 220.111C236.119 220.024 236.37 219.793 236.48 219.489C236.59 219.185 236.547 218.846 236.364 218.58L235.54 219.147ZM219.524 223.588L218.529 223.482L218.373 224.945L219.791 224.552L219.524 223.588ZM220.62 213.331L221.615 213.437L221.649 213.116L221.489 212.835L220.62 213.331ZM212.845 199.704L213.12 200.666L220.895 198.441L220.62 197.479L220.345 196.518L212.57 198.743L212.845 199.704ZM220.62 197.479L219.797 198.047L234.717 219.714L235.54 219.147L236.364 218.58L221.444 196.912L220.62 197.479ZM235.54 219.147L235.273 218.183L219.256 222.624L219.524 223.588L219.791 224.552L235.807 220.111L235.54 219.147ZM219.524 223.588L220.518 223.694L221.615 213.437L220.62 213.331L219.626 213.225L218.529 223.482L219.524 223.588ZM220.62 213.331L221.489 212.835L213.713 199.209L212.845 199.704L211.976 200.2L219.752 213.827L220.62 213.331Z" fill="#6192AA"/>
<path d="M154.037 262.577L138.396 240.477L220.586 213.626L219.227 223.567L216.885 240.477L154.037 262.577Z" fill="#E6F3F9"/>
<path d="M212.684 199.436L220.586 197.566M138.396 240.477L154.037 262.577L216.885 240.477L219.227 223.567L220.586 213.626L138.396 240.477Z" stroke="#6192AA" stroke-width="2" stroke-linejoin="round"/>
<path d="M220.326 198.038L213.111 199.61L221.747 212.968L220.64 222.154L233.972 218.591L220.326 198.038Z" fill="url(#paint0_linear_224_2)"/>
<path d="M218.317 249.505L217.502 248.038L217.501 241.918L224.244 240.596L225.324 241.918L226.614 243.395L218.317 249.505Z" fill="#437086"/>
<path d="M173.567 264.55L172.943 262.117L172.39 260.041L177.091 257.119L182.852 258.805L183.748 260.923L173.567 264.55Z" fill="#437086"/>
<path d="M138.396 240.22L138.397 206.324L204.613 185.416L220.726 213.182L138.396 240.22Z" fill="#E6F3F9" stroke="#6192AA" stroke-width="2" stroke-linejoin="round"/>
<path d="M215.018 249.146L215.439 249.505L216.756 241.029L216.178 241.251L215.018 249.146Z" fill="#437086"/>
<path d="M235.95 233.754L235.522 219.256L219.397 223.822L216.039 248.805L217.435 248.38C217.435 248.38 218.54 243.551 223.083 242.391C228.015 241.132 228.098 245.264 228.098 245.264L232.501 243.925L235.95 233.754Z" fill="#E6F3F9"/>
<path d="M235.522 219.256L236.522 219.227C236.512 218.919 236.362 218.632 236.113 218.45C235.865 218.268 235.546 218.21 235.25 218.294L235.522 219.256ZM235.95 233.754L236.897 234.075L236.955 233.905L236.95 233.724L235.95 233.754ZM232.501 243.925L232.792 244.881L233.283 244.732L233.448 244.246L232.501 243.925ZM216.039 248.805L215.048 248.672L214.841 250.215L216.33 249.761L216.039 248.805ZM219.397 223.822L219.124 222.86L218.493 223.039L218.406 223.689L219.397 223.822ZM228.098 245.264L227.098 245.284L227.125 246.605L228.389 246.22L228.098 245.264ZM217.435 248.38L217.727 249.336L218.281 249.168L218.41 248.603L217.435 248.38ZM223.083 242.391L222.836 241.422V241.422L223.083 242.391ZM235.522 219.256L234.522 219.286L234.951 233.783L235.95 233.754L236.95 233.724L236.522 219.227L235.522 219.256ZM235.95 233.754L235.003 233.433L231.554 243.603L232.501 243.925L233.448 244.246L236.897 234.075L235.95 233.754ZM216.039 248.805L217.03 248.938L220.388 223.955L219.397 223.822L218.406 223.689L215.048 248.672L216.039 248.805ZM219.397 223.822L219.669 224.784L235.794 220.219L235.522 219.256L235.25 218.294L219.124 222.86L219.397 223.822ZM232.501 243.925L232.21 242.968L227.807 244.307L228.098 245.264L228.389 246.22L232.792 244.881L232.501 243.925ZM217.435 248.38L217.144 247.423L215.748 247.848L216.039 248.805L216.33 249.761L217.727 249.336L217.435 248.38ZM228.098 245.264C229.098 245.244 229.098 245.243 229.098 245.242C229.098 245.242 229.098 245.241 229.098 245.241C229.098 245.24 229.098 245.239 229.098 245.238C229.097 245.236 229.097 245.234 229.097 245.231C229.097 245.226 229.097 245.22 229.097 245.212C229.096 245.198 229.095 245.179 229.094 245.157C229.091 245.113 229.087 245.053 229.079 244.982C229.063 244.838 229.035 244.642 228.982 244.413C228.878 243.962 228.671 243.347 228.248 242.767C227.816 242.173 227.168 241.631 226.234 241.351C225.314 241.075 224.192 241.076 222.836 241.422L223.083 242.391L223.33 243.36C224.44 243.077 225.178 243.122 225.66 243.267C226.129 243.407 226.427 243.662 226.631 243.944C226.846 244.239 226.968 244.578 227.033 244.863C227.065 245.002 227.082 245.118 227.09 245.196C227.095 245.234 227.097 245.262 227.098 245.278C227.098 245.286 227.098 245.29 227.098 245.291C227.098 245.292 227.098 245.292 227.098 245.29C227.098 245.29 227.098 245.289 227.098 245.288C227.098 245.287 227.098 245.287 227.098 245.286C227.098 245.286 227.098 245.285 227.098 245.285C227.098 245.284 227.098 245.284 228.098 245.264ZM223.083 242.391L222.836 241.422C220.237 242.086 218.638 243.8 217.707 245.291C217.242 246.037 216.934 246.741 216.741 247.259C216.645 247.52 216.577 247.736 216.532 247.89C216.509 247.968 216.492 248.03 216.481 248.075C216.475 248.098 216.47 248.116 216.467 248.13C216.465 248.136 216.464 248.142 216.463 248.147C216.462 248.149 216.462 248.151 216.461 248.152C216.461 248.153 216.461 248.154 216.461 248.155C216.461 248.155 216.461 248.156 216.461 248.156C216.461 248.156 216.461 248.157 217.435 248.38C218.41 248.603 218.41 248.603 218.41 248.604C218.41 248.604 218.41 248.604 218.41 248.604C218.41 248.605 218.41 248.605 218.41 248.605C218.409 248.606 218.409 248.606 218.409 248.606C218.409 248.606 218.41 248.604 218.41 248.602C218.411 248.597 218.414 248.588 218.417 248.575C218.424 248.549 218.435 248.506 218.452 248.449C218.485 248.336 218.539 248.165 218.617 247.955C218.773 247.532 219.026 246.956 219.404 246.35C220.162 245.136 221.387 243.856 223.33 243.36L223.083 242.391Z" fill="#6192AA"/>
<path d="M215.648 242.167L154.743 263.835L158.518 269.366L172.605 264.186C172.498 262.962 172.769 259.777 176.771 258.318C180.773 256.858 183.394 259.103 184.16 260.091L214.638 249.206L215.648 242.167Z" fill="#E6F3F9" stroke="#6192AA" stroke-width="2"/>
<path d="M177.382 260.039C178.851 259.478 180.129 259.61 181.095 260.001C182.104 260.409 182.712 261.068 182.891 261.462C183.314 262.398 182.92 264.396 180.149 265.657C178.908 266.222 177.575 266.21 176.494 265.867C175.36 265.507 174.73 264.87 174.587 264.419C174.144 263.027 174.94 260.971 177.382 260.039Z" fill="#E6F3F9" stroke="#6192AA" stroke-width="2"/>
<path d="M224.031 242.854C225.197 242.762 225.724 243.095 225.988 243.409C226.296 243.774 226.444 244.345 226.428 245.008C226.422 245.249 226.231 246.169 225.641 247.144C225.069 248.089 224.185 248.981 222.868 249.361C221.578 249.733 220.637 249.553 220.071 249.201C219.525 248.861 219.224 248.302 219.26 247.607C219.303 246.798 219.807 245.678 220.721 244.69C221.619 243.719 222.795 243.005 224.031 242.854Z" stroke="#6192AA" stroke-width="2"/>
<path d="M224.668 244.13C225.855 244.222 226.286 244.703 226.478 245.115C226.714 245.619 226.696 246.259 226.591 246.691C226.506 247.04 226.128 247.907 225.381 248.711C224.653 249.495 223.627 250.166 222.246 250.283C220.908 250.396 220.02 250.036 219.534 249.581C219.064 249.14 218.878 248.533 219.049 247.859C219.249 247.074 219.962 246.073 221.051 245.283C222.125 244.504 223.423 244.034 224.668 244.13Z" fill="#E6F3F9" stroke="#6192AA" stroke-width="2"/>
</g>
<defs>
<filter id="filter0_f_224_2" x="170.681" y="258.953" width="15.3666" height="11.1933" filterUnits="userSpaceOnUse" color-interpolation-filters="sRGB">
<feFlood flood-opacity="0" result="BackgroundImageFix"/>
<feBlend mode="normal" in="SourceGraphic" in2="BackgroundImageFix" result="shape"/>
<feGaussianBlur stdDeviation="1.15" result="effect1_foregroundBlur_224_2"/>
</filter>
<filter id="filter1_f_224_2" x="212.718" y="243.909" width="15.3666" height="11.1933" filterUnits="userSpaceOnUse" color-interpolation-filters="sRGB">
<feFlood flood-opacity="0" result="BackgroundImageFix"/>
<feBlend mode="normal" in="SourceGraphic" in2="BackgroundImageFix" result="shape"/>
<feGaussianBlur stdDeviation="1.15" result="effect1_foregroundBlur_224_2"/>
</filter>
<filter id="filter2_f_224_2" x="137.426" y="208.729" width="119.43" height="87.1288" filterUnits="userSpaceOnUse" color-interpolation-filters="sRGB">
<feFlood flood-opacity="0" result="BackgroundImageFix"/>
<feBlend mode="normal" in="SourceGraphic" in2="BackgroundImageFix" result="shape"/>
<feGaussianBlur stdDeviation="7.65" result="effect1_foregroundBlur_224_2"/>
</filter>
<linearGradient id="paint0_linear_224_2" x1="223.702" y1="211.368" x2="211.631" y2="216.537" gradientUnits="userSpaceOnUse">
<stop stop-color="#E6F3F9"/>
<stop offset="0.283654" stop-color="#D6E7F0" stop-opacity="0.879808"/>
<stop offset="1" stop-color="#6192AA" stop-opacity="0"/>
</linearGradient>
</defs>
</svg>
